<?xml version="1.0" encoding="UTF-8" standalone="no"?> <svg width="100" height="100" viewBox="0 0 100 100" fill="none" xmlns="http://www.w3.org/2000/svg">
<path d="M93.998 45.312C93.998 41.636 92.339 38.191 89.512 35.898C89.635 35.311 89.696 34.747 89.696 34.192C89.696 29.613 86.31 25.81 81.911 25.155C82.012 24.629 82.06 24.113 82.06 23.599C82.06 18.724 78.218 14.741 73.405 14.488C73.326 14.475 73.246 14.464 73.163 14.464C73.123 14.464 73.084 14.469 73.043 14.47C73.003 14.469 72.964 14.464 72.923 14.464C72.465 14.464 72.004 14.505 71.517 14.59C70.671 10.105 66.764 6.765 62.08 6.765C56.769 6.765 52.448 11.086 52.448 16.398V82.316C52.448 89.039 57.917 94.507 64.639 94.507C69.099 94.507 73.147 92.094 75.285 88.261C75.764 88.365 76.224 88.429 76.686 88.459C79.589 88.644 82.416 87.693 84.612 85.766C86.808 83.839 88.122 81.172 88.312 78.256C88.391 77.041 88.255 75.822 87.909 74.618C91.705 71.927 93.936 67.666 93.936 62.997C93.936 59.612 92.717 56.362 90.491 53.773C92.731 51.505 93.998 48.471 93.998 45.312ZM90.938 62.999C90.938 66.483 89.356 69.679 86.643 71.818C84.635 68.622 81.073 66.581 77.216 66.581C76.388 66.581 75.716 67.253 75.716 68.081C75.716 68.909 76.388 69.581 77.216 69.581C80.557 69.581 83.6 71.674 84.798 74.789C85.208 75.877 85.39 76.978 85.319 78.063C85.181 80.179 84.228 82.114 82.634 83.512C81.04 84.911 78.993 85.606 76.882 85.466C76.288 85.427 75.674 85.299 74.949 85.064C74.209 84.822 73.408 85.188 73.103 85.904C71.658 89.308 68.335 91.508 64.638 91.508C59.57 91.508 55.447 87.385 55.447 82.317V16.399C55.447 12.742 58.422 9.766 62.079 9.766C65.477 9.766 68.273 12.328 68.637 15.674C65.886 17.25 64.025 20.209 64.025 23.6C64.025 24.429 64.697 25.1 65.525 25.1C66.353 25.1 67.025 24.429 67.025 23.6C67.025 20.257 69.714 17.535 73.041 17.47C76.368 17.535 79.057 20.257 79.057 23.599C79.057 24.221 78.94 24.865 78.698 25.57C78.641 25.736 78.614 25.91 78.617 26.085C78.618 26.126 78.62 26.164 78.624 26.2C78.618 26.221 78.614 26.235 78.614 26.235C78.496 26.7 78.608 27.194 78.915 27.563C79.222 27.932 79.68 28.132 80.166 28.101C80.27 28.094 80.374 28.081 80.558 28.055C83.941 28.055 86.694 30.808 86.694 34.191C86.694 34.763 86.591 35.35 86.372 36.04C86.169 36.675 86.41 37.368 86.963 37.74C89.397 39.379 90.872 42.069 90.977 44.982C90.977 44.986 90.976 44.99 90.976 44.994C90.976 50.024 86.884 54.117 81.854 54.117C76.824 54.117 72.731 50.024 72.731 44.994C72.731 44.165 72.059 43.494 71.231 43.494C70.403 43.494 69.731 44.165 69.731 44.994C69.731 51.679 75.169 57.117 81.854 57.117C84.082 57.117 86.164 56.502 87.96 55.449C89.88 57.539 90.938 60.212 90.938 62.999Z" fill="white" stroke="white" stroke-width="2.2"/>
<path d="M38.179 6.766C33.495 6.766 29.589 10.106 28.744 14.591C28.256 14.506 27.795 14.465 27.337 14.465C27.297 14.465 27.258 14.47 27.217 14.471C27.177 14.47 27.138 14.465 27.097 14.465C27.014 14.465 26.934 14.476 26.855 14.489C22.042 14.742 18.201 18.725 18.201 23.6C18.201 24.114 18.25 24.63 18.35 25.156C13.951 25.811 10.565 29.614 10.565 34.193C10.565 34.747 10.626 35.311 10.749 35.899C7.922 38.192 6.263 41.637 6.263 45.313C6.263 48.472 7.529 51.506 9.768 53.776C7.541 56.365 6.322 59.615 6.322 63C6.322 67.669 8.553 71.929 12.349 74.621C12.002 75.825 11.867 77.044 11.947 78.26C12.137 81.175 13.45 83.842 15.646 85.769C17.842 87.697 20.661 88.648 23.572 88.462C24.027 88.432 24.491 88.366 24.972 88.263C27.11 92.097 31.158 94.51 35.618 94.51C42.34 94.51 47.809 89.041 47.809 82.319V16.399C47.811 11.087 43.49 6.766 38.179 6.766ZM44.811 82.317C44.811 87.385 40.688 91.508 35.62 91.508C31.923 91.508 28.6 89.308 27.156 85.904C26.915 85.337 26.363 84.99 25.775 84.99C25.621 84.99 25.464 85.013 25.31 85.064C24.586 85.299 23.972 85.427 23.377 85.466C21.258 85.605 19.219 84.91 17.626 83.512C16.032 82.114 15.079 80.179 14.941 78.063C14.865 76.903 15.066 75.727 15.539 74.568C15.546 74.551 15.544 74.532 15.55 74.515C16.892 71.459 19.775 69.562 23.147 69.562C23.976 69.562 24.647 68.89 24.647 68.062C24.647 67.234 23.976 66.562 23.147 66.562C19.209 66.562 15.646 68.569 13.599 71.801C10.898 69.662 9.322 66.474 9.322 62.999C9.322 60.212 10.382 57.539 12.3 55.45C14.096 56.503 16.179 57.118 18.407 57.118C25.092 57.118 30.53 51.68 30.53 44.995C30.53 44.166 29.859 43.495 29.03 43.495C28.201 43.495 27.53 44.166 27.53 44.995C27.53 50.025 23.438 54.118 18.407 54.118C13.376 54.118 9.284 50.025 9.284 44.995C9.284 44.993 9.283 44.991 9.283 44.989C9.386 42.074 10.861 39.382 13.296 37.741C13.849 37.369 14.089 36.677 13.887 36.042C13.667 35.351 13.565 34.764 13.565 34.192C13.565 30.816 16.306 28.067 19.76 28.067C19.767 28.067 19.775 28.067 19.782 28.067C19.885 28.081 19.988 28.094 20.093 28.101C20.578 28.131 21.041 27.93 21.347 27.559C21.654 27.187 21.764 26.691 21.641 26.225C21.641 26.224 21.638 26.211 21.633 26.194C21.636 26.159 21.639 26.127 21.64 26.099C21.645 25.919 21.618 25.74 21.559 25.57C21.317 24.863 21.2 24.218 21.2 23.598C21.2 20.256 23.888 17.533 27.216 17.469C30.544 17.534 33.232 20.256 33.232 23.599C33.232 24.428 33.903 25.099 34.732 25.099C35.561 25.099 36.232 24.428 36.232 23.599C36.232 20.208 34.371 17.249 31.62 15.673C31.984 12.327 34.78 9.765 38.178 9.765C41.835 9.765 44.81 12.741 44.81 16.398V82.317H44.811Z" fill="white" stroke="white" stroke-width="2.2"/>
</svg>
